<svg id="visual" viewBox="0 0 900 600" width="900" height="600" xmlns="http://www.w3.org/2000/svg" xmlns:xlink="http://www.w3.org/1999/xlink" version="1.1"><path d="M0 338L10.7 345.8C21.3 353.7 42.7 369.3 64.2 373.5C85.7 377.7 107.3 370.3 128.8 377.3C150.3 384.3 171.7 405.7 193 408C214.3 410.3 235.7 393.7 257 396.7C278.3 399.7 299.7 422.3 321.2 422.2C342.7 422 364.3 399 385.8 393.8C407.3 388.7 428.7 401.3 450 403.8C471.3 406.3 492.7 398.7 514.2 388.7C535.7 378.7 557.3 366.3 578.8 355.8C600.3 345.3 621.7 336.7 643 351.8C664.3 367 685.7 406 707 411.3C728.3 416.7 749.7 388.3 771.2 372.5C792.7 356.7 814.3 353.3 835.8 360.8C857.3 368.3 878.7 386.7 889.3 395.8L900 405L900 601L889.3 601C878.7 601 857.3 601 835.8 601C814.3 601 792.7 601 771.2 601C749.7 601 728.3 601 707 601C685.7 601 664.3 601 643 601C621.7 601 600.3 601 578.8 601C557.3 601 535.7 601 514.2 601C492.7 601 471.3 601 450 601C428.7 601 407.3 601 385.8 601C364.3 601 342.7 601 321.2 601C299.7 601 278.3 601 257 601C235.7 601 214.3 601 193 601C171.7 601 150.3 601 128.8 601C107.3 601 85.7 601 64.2 601C42.7 601 21.3 601 10.7 601L0 601Z" fill="#c1f7ff"></path><path d="M0 391L10.7 388.3C21.3 385.7 42.7 380.3 64.2 392.7C85.7 405 107.3 435 128.8 442.5C150.3 450 171.7 435 193 434.7C214.3 434.3 235.7 448.7 257 451.2C278.3 453.7 299.7 444.3 321.2 429.5C342.7 414.7 364.3 394.3 385.8 384.5C407.3 374.7 428.7 375.3 450 388.2C471.3 401 492.7 426 514.2 428C535.7 430 557.3 409 578.8 404C600.3 399 621.7 410 643 420C664.3 430 685.7 439 707 428C728.3 417 749.7 386 771.2 385.8C792.7 385.7 814.3 416.3 835.8 419.5C857.3 422.7 878.7 398.3 889.3 386.2L900 374L900 601L889.3 601C878.7 601 857.3 601 835.8 601C814.3 601 792.7 601 771.2 601C749.7 601 728.3 601 707 601C685.7 601 664.3 601 643 601C621.7 601 600.3 601 578.8 601C557.3 601 535.7 601 514.2 601C492.7 601 471.3 601 450 601C428.7 601 407.3 601 385.8 601C364.3 601 342.7 601 321.2 601C299.7 601 278.3 601 257 601C235.7 601 214.3 601 193 601C171.7 601 150.3 601 128.8 601C107.3 601 85.7 601 64.2 601C42.7 601 21.3 601 10.7 601L0 601Z" fill="#b2eef7"></path><path d="M0 443L10.7 439.5C21.3 436 42.7 429 64.2 432.5C85.7 436 107.3 450 128.8 455.7C150.3 461.3 171.7 458.7 193 462C214.3 465.3 235.7 474.7 257 473.2C278.3 471.7 299.7 459.3 321.2 447.7C342.7 436 364.3 425 385.8 423.5C407.3 422 428.7 430 450 427C471.3 424 492.7 410 514.2 411.2C535.7 412.3 557.3 428.7 578.8 440.5C600.3 452.3 621.7 459.7 643 450C664.3 440.3 685.7 413.7 707 407.5C728.3 401.3 749.7 415.7 771.2 415C792.7 414.3 814.3 398.7 835.8 402.5C857.3 406.3 878.7 429.7 889.3 441.3L900 453L900 601L889.3 601C878.7 601 857.3 601 835.8 601C814.3 601 792.7 601 771.2 601C749.7 601 728.3 601 707 601C685.7 601 664.3 601 643 601C621.7 601 600.3 601 578.8 601C557.3 601 535.7 601 514.2 601C492.7 601 471.3 601 450 601C428.7 601 407.3 601 385.8 601C364.3 601 342.7 601 321.2 601C299.7 601 278.3 601 257 601C235.7 601 214.3 601 193 601C171.7 601 150.3 601 128.8 601C107.3 601 85.7 601 64.2 601C42.7 601 21.3 601 10.7 601L0 601Z" fill="#a3e5ef"></path><path d="M0 463L10.7 455.8C21.3 448.7 42.7 434.3 64.2 426.3C85.7 418.3 107.3 416.7 128.8 419.2C150.3 421.7 171.7 428.3 193 437.8C214.3 447.3 235.7 459.7 257 464.3C278.3 469 299.7 466 321.2 462.2C342.7 458.3 364.3 453.7 385.8 448.5C407.3 443.3 428.7 437.7 450 445.3C471.3 453 492.7 474 514.2 483.3C535.7 492.7 557.3 490.3 578.8 483.5C600.3 476.7 621.7 465.3 643 459.7C664.3 454 685.7 454 707 449.2C728.3 444.3 749.7 434.7 771.2 436.2C792.7 437.7 814.3 450.3 835.8 462.3C857.3 474.3 878.7 485.7 889.3 491.3L900 497L900 601L889.3 601C878.7 601 857.3 601 835.8 601C814.3 601 792.7 601 771.2 601C749.7 601 728.3 601 707 601C685.7 601 664.3 601 643 601C621.7 601 600.3 601 578.8 601C557.3 601 535.7 601 514.2 601C492.7 601 471.3 601 450 601C428.7 601 407.3 601 385.8 601C364.3 601 342.7 601 321.2 601C299.7 601 278.3 601 257 601C235.7 601 214.3 601 193 601C171.7 601 150.3 601 128.8 601C107.3 601 85.7 601 64.2 601C42.7 601 21.3 601 10.7 601L0 601Z" fill="#94dce7"></path><path d="M0 477L10.7 483.3C21.3 489.7 42.7 502.3 64.2 499.8C85.7 497.3 107.3 479.7 128.8 472.2C150.3 464.7 171.7 467.3 193 477C214.3 486.7 235.7 503.3 257 501.2C278.3 499 299.7 478 321.2 472.5C342.7 467 364.3 477 385.8 481.5C407.3 486 428.7 485 450 482.3C471.3 479.7 492.7 475.3 514.2 475C535.7 474.7 557.3 478.3 578.8 483.5C600.3 488.7 621.7 495.3 643 499.8C664.3 504.3 685.7 506.7 707 497C728.3 487.3 749.7 465.7 771.2 461.2C792.7 456.7 814.3 469.3 835.8 478.7C857.3 488 878.7 494 889.3 497L900 500L900 601L889.3 601C878.7 601 857.3 601 835.8 601C814.3 601 792.7 601 771.2 601C749.7 601 728.3 601 707 601C685.7 601 664.3 601 643 601C621.7 601 600.3 601 578.8 601C557.3 601 535.7 601 514.2 601C492.7 601 471.3 601 450 601C428.7 601 407.3 601 385.8 601C364.3 601 342.7 601 321.2 601C299.7 601 278.3 601 257 601C235.7 601 214.3 601 193 601C171.7 601 150.3 601 128.8 601C107.3 601 85.7 601 64.2 601C42.7 601 21.3 601 10.7 601L0 601Z" fill="#84d3df"></path><path d="M0 521L10.7 523.2C21.3 525.3 42.7 529.7 64.2 525.8C85.7 522 107.3 510 128.8 506C150.3 502 171.7 506 193 509.3C214.3 512.7 235.7 515.3 257 515.7C278.3 516 299.7 514 321.2 505.3C342.7 496.7 364.3 481.3 385.8 478.2C407.3 475 428.7 484 450 493.7C471.3 503.3 492.7 513.7 514.2 511.3C535.7 509 557.3 494 578.8 495.2C600.3 496.3 621.7 513.7 643 516.3C664.3 519 685.7 507 707 497.3C728.3 487.7 749.7 480.3 771.2 484.5C792.7 488.7 814.3 504.3 835.8 507.2C857.3 510 878.7 500 889.3 495L900 490L900 601L889.3 601C878.7 601 857.3 601 835.8 601C814.3 601 792.7 601 771.2 601C749.7 601 728.3 601 707 601C685.7 601 664.3 601 643 601C621.7 601 600.3 601 578.8 601C557.3 601 535.7 601 514.2 601C492.7 601 471.3 601 450 601C428.7 601 407.3 601 385.8 601C364.3 601 342.7 601 321.2 601C299.7 601 278.3 601 257 601C235.7 601 214.3 601 193 601C171.7 601 150.3 601 128.8 601C107.3 601 85.7 601 64.2 601C42.7 601 21.3 601 10.7 601L0 601Z" fill="#74cad7"></path><path d="M0 500L10.7 502.5C21.3 505 42.7 510 64.2 519C85.7 528 107.3 541 128.8 541.3C150.3 541.7 171.7 529.3 193 520C214.3 510.7 235.7 504.3 257 503.8C278.3 503.3 299.7 508.7 321.2 513.8C342.7 519 364.3 524 385.8 528.3C407.3 532.7 428.7 536.3 450 535.2C471.3 534 492.7 528 514.2 522.7C535.7 517.3 557.3 512.7 578.8 509C600.3 505.3 621.7 502.7 643 505.2C664.3 507.7 685.7 515.3 707 518.7C728.3 522 749.7 521 771.2 518.7C792.7 516.3 814.3 512.7 835.8 513.3C857.3 514 878.7 519 889.3 521.5L900 524L900 601L889.3 601C878.7 601 857.3 601 835.8 601C814.3 601 792.7 601 771.2 601C749.7 601 728.3 601 707 601C685.7 601 664.3 601 643 601C621.7 601 600.3 601 578.8 601C557.3 601 535.7 601 514.2 601C492.7 601 471.3 601 450 601C428.7 601 407.3 601 385.8 601C364.3 601 342.7 601 321.2 601C299.7 601 278.3 601 257 601C235.7 601 214.3 601 193 601C171.7 601 150.3 601 128.8 601C107.3 601 85.7 601 64.2 601C42.7 601 21.3 601 10.7 601L0 601Z" fill="#63c1d0"></path><path d="M0 560L10.7 561C21.3 562 42.7 564 64.2 562.5C85.7 561 107.3 556 128.8 555.7C150.3 555.3 171.7 559.7 193 557C214.3 554.3 235.7 544.7 257 542.7C278.3 540.7 299.7 546.3 321.2 551C342.7 555.7 364.3 559.3 385.8 562C407.3 564.7 428.7 566.3 450 560C471.3 553.7 492.7 539.3 514.2 535.8C535.7 532.3 557.3 539.7 578.8 542.5C600.3 545.3 621.7 543.7 643 540.7C664.3 537.7 685.7 533.3 707 537.2C728.3 541 749.7 553 771.2 559.3C792.7 565.7 814.3 566.3 835.8 561.5C857.3 556.7 878.7 546.3 889.3 541.2L900 536L900 601L889.3 601C878.7 601 857.3 601 835.8 601C814.3 601 792.7 601 771.2 601C749.7 601 728.3 601 707 601C685.7 601 664.3 601 643 601C621.7 601 600.3 601 578.8 601C557.3 601 535.7 601 514.2 601C492.7 601 471.3 601 450 601C428.7 601 407.3 601 385.8 601C364.3 601 342.7 601 321.2 601C299.7 601 278.3 601 257 601C235.7 601 214.3 601 193 601C171.7 601 150.3 601 128.8 601C107.3 601 85.7 601 64.2 601C42.7 601 21.3 601 10.7 601L0 601Z" fill="#50b8c8"></path><path d="M0 589L10.7 586.8C21.3 584.7 42.7 580.3 64.2 575.8C85.7 571.3 107.3 566.7 128.8 565.7C150.3 564.7 171.7 567.3 193 566.3C214.3 565.3 235.7 560.7 257 562.5C278.3 564.3 299.7 572.7 321.2 575.5C342.7 578.3 364.3 575.7 385.8 571C407.3 566.3 428.7 559.7 450 557.2C471.3 554.7 492.7 556.3 514.2 562C535.7 567.7 557.3 577.3 578.8 580.2C600.3 583 621.7 579 643 573C664.3 567 685.7 559 707 554.8C728.3 550.7 749.7 550.3 771.2 550.8C792.7 551.3 814.3 552.7 835.8 557.2C857.3 561.7 878.7 569.3 889.3 573.2L900 577L900 601L889.3 601C878.7 601 857.3 601 835.8 601C814.3 601 792.7 601 771.2 601C749.7 601 728.3 601 707 601C685.7 601 664.3 601 643 601C621.7 601 600.3 601 578.8 601C557.3 601 535.7 601 514.2 601C492.7 601 471.3 601 450 601C428.7 601 407.3 601 385.8 601C364.3 601 342.7 601 321.2 601C299.7 601 278.3 601 257 601C235.7 601 214.3 601 193 601C171.7 601 150.3 601 128.8 601C107.3 601 85.7 601 64.2 601C42.7 601 21.3 601 10.7 601L0 601Z" fill="#3aafc1"></path></svg>